<svg xmlns="http://www.w3.org/2000/svg" version="1.1" xmlns:xlink="http://www.w3.org/1999/xlink" xmlns:svgjs="http://svgjs.dev/svgjs" width="256" height="256" viewBox="0 0 256 256"><g transform="matrix(0.8046875,0,0,0.8046875,12.760752631578946,32.83559365403336)"><svg viewBox="0 0 95 58" data-background-color="#ffffff" preserveAspectRatio="xMidYMid meet" height="128" width="192" xmlns="http://www.w3.org/2000/svg" xmlns:xlink="http://www.w3.org/1999/xlink"><g id="tight-bounds" transform="matrix(1,0,0,1,-0.24049999999999727,-0.2018231625023219)"><svg viewBox="0 0 95.481 58.40364632500465" height="58.40364632500465" width="95.481"><g><svg viewBox="0 0 95.481 58.40364632500465" height="58.40364632500465" width="95.481"><g><svg viewBox="0 0 95.481 58.40364632500465" height="58.40364632500465" width="95.481"><g id="textblocktransform"><svg viewBox="0 0 95.481 58.40364632500465" height="58.40364632500465" width="95.481" id="textblock"><g><svg viewBox="0 0 95.481 58.40364632500465" height="58.40364632500465" width="95.481"><g><svg viewBox="0 0 95.481 58.40364632500465" height="58.40364632500465" width="95.481"><g><svg xmlns="http://www.w3.org/2000/svg" xmlns:xlink="http://www.w3.org/1999/xlink" version="1.1" x="0" y="0" viewBox="4.280035867850395 20 91.71979628105136 56.10300000000001" enable-background="new 0 0 100 100" xml:space="preserve" height="58.40364632500465" width="95.481" class="icon-icon-0" data-fill-palette-color="accent" id="icon-0"><g fill="#f500a2" data-fill-palette-color="accent"><path d="M68.633 55.761c-0.157 0-0.317 0.01-0.474 0.032-1.972 0.264-3.362 2.081-3.1 4.053 0.238 1.785 1.777 3.131 3.579 3.131 0.158 0 0.317-0.01 0.475-0.031 1.971-0.264 3.361-2.081 3.1-4.054C71.974 57.107 70.435 55.761 68.633 55.761z" fill="#f500a2" data-fill-palette-color="accent"></path><path d="M73.58 34.083c-1.609-1.063-3.733-1.625-6.146-1.625-0.709 0-1.438 0.049-2.166 0.146-2.408 0.321-4.744 1.487-6.41 3.197-1.689 1.736-2.51 3.855-2.248 5.813 0.192 1.445 1.28 2.379 2.771 2.379 0.16 0 0.323-0.012 0.486-0.033 1.992-0.266 2.422-1.638 2.836-2.964 0.473-1.512 0.919-2.939 3.493-3.283 0.264-0.035 0.521-0.053 0.765-0.053 1.853 0 3.003 0.978 3.24 2.754 0.232 1.738-1.142 3.124-2.597 4.591-1.633 1.647-3.484 3.513-3.131 6.16 0.091 0.682 0.392 1.318 0.846 1.791 0.521 0.543 1.203 0.83 1.972 0.83 0.141 0 0.287-0.009 0.432-0.029 2.084-0.278 2.368-1.487 2.642-2.658 0.104-0.442 0.212-0.9 0.42-1.312 0.289-0.576 1.012-1.252 1.851-2.034 2.002-1.871 4.743-4.433 4.236-8.228C76.555 37.148 75.446 35.317 73.58 34.083z" fill="#f500a2" data-fill-palette-color="accent"></path><path d="M95.961 65.606l-5.583-41.84C90.091 21.62 88.243 20 86.078 20c-0.191 0-0.386 0.013-0.577 0.039l-41.839 5.583c-2.372 0.317-4.044 2.504-3.728 4.877l0.319 2.394-27.441-3.965c-0.16-0.023-0.323-0.035-0.484-0.035-1.661 0-3.092 1.241-3.331 2.886L4.315 64.188c-0.128 0.891 0.098 1.777 0.636 2.498 0.539 0.72 1.325 1.188 2.216 1.316l32.408 4.682c0.161 0.022 0.324 0.033 0.484 0.033 1.661 0 3.092-1.239 3.33-2.885l0.932-6.453 1.195 8.957c0.287 2.148 2.135 3.767 4.299 3.767 0.192 0 0.387-0.012 0.578-0.037l41.84-5.585c1.147-0.152 2.169-0.744 2.873-1.665C95.812 67.896 96.114 66.755 95.961 65.606zM40.623 69.434c-0.044 0.307-0.334 0.529-0.647 0.483L7.567 65.235c-0.205-0.029-0.323-0.152-0.376-0.223-0.053-0.071-0.137-0.221-0.108-0.425l4.682-32.409c0.041-0.279 0.283-0.49 0.563-0.49 0.028 0 0.057 0.002 0.084 0.006l28.226 4.077 2.328 17.444L40.623 69.434zM92.244 66.627c-0.069 0.091-0.225 0.248-0.488 0.283l-41.839 5.584c-0.405 0.056-0.774-0.235-0.828-0.633l-5.583-41.839c-0.054-0.403 0.23-0.774 0.633-0.828l41.838-5.584c0.035-0.004 0.067-0.006 0.102-0.006 0.366 0 0.68 0.275 0.728 0.64l5.585 41.84C92.425 66.347 92.312 66.537 92.244 66.627z" fill="#f500a2" data-fill-palette-color="accent"></path><path d="M33.159 41.087c-1.284-1.176-3.186-1.997-5.354-2.31-0.396-0.058-0.803-0.087-1.208-0.087-1.703 0-3.377 0.5-4.717 1.408-1.377 0.934-2.246 2.203-2.443 3.572-0.094 0.651 0.061 1.231 0.45 1.679 0.35 0.402 0.877 0.673 1.485 0.761 0.153 0.022 0.3 0.034 0.44 0.034 1.227 0 1.775-0.837 2.305-1.646 0.591-0.906 1.151-1.762 2.64-1.762 0.206 0 0.429 0.017 0.66 0.05 1.764 0.254 2.645 1.298 2.418 2.864-0.193 1.345-1.513 2.09-2.908 2.877-1.567 0.884-3.344 1.886-3.64 3.937-0.083 0.572 0.033 1.168 0.32 1.633 0.235 0.382 0.695 0.863 1.557 0.988 0.18 0.025 0.351 0.039 0.509 0.039h0.001c1.212 0 1.625-0.745 2.023-1.465 0.171-0.309 0.347-0.628 0.59-0.891 0.337-0.369 1.021-0.721 1.812-1.128 1.89-0.972 4.479-2.306 4.903-5.244C35.303 44.305 34.667 42.469 33.159 41.087z" fill="#f500a2" data-fill-palette-color="accent"></path><path d="M25.057 56.696c-0.132-0.019-0.265-0.03-0.397-0.03-1.383 0-2.576 1.033-2.774 2.4-0.219 1.527 0.844 2.949 2.371 3.17 0.132 0.02 0.266 0.028 0.397 0.028 1.384 0 2.577-1.031 2.774-2.398C27.647 58.339 26.584 56.918 25.057 56.696z" fill="#f500a2" data-fill-palette-color="accent"></path></g></svg></g></svg></g></svg></g></svg></g></svg></g></svg></g><defs></defs></svg><rect width="95.481" height="58.40364632500465" fill="none" stroke="none" visibility="hidden"></rect></g></svg></g></svg>